Coordinates
version=1
nRows=10
nColumns=63
inDegrees=yes

Units are S.I. units (second, meters, Newtons, ...)
If the header above contains a line with 'inDegrees', this indicates whether rotational values are in degrees (yes) or radians (no).

endheader
time	pelvis_tilt	pelvis_list	pelvis_rotation	pelvis_tx	pelvis_ty	pelvis_tz	hip_flexion_r	hip_adduction_r	hip_rotation_r	knee_angle_r	knee_angle_r_beta	ankle_angle_r	subtalar_angle_r	mtp_angle_r	hip_flexion_l	hip_adduction_l	hip_rotation_l	knee_angle_l	knee_angle_l_beta	ankle_angle_l	subtalar_angle_l	mtp_angle_l	L5_S1_Flex_Ext	L5_S1_Lat_Bending	L5_S1_axial_rotation	L4_L5_Flex_Ext	L4_L5_Lat_Bending	L4_L5_axial_rotation	L3_L4_Flex_Ext	L3_L4_Lat_Bending	L3_L4_axial_rotation	L2_L3_Flex_Ext	L2_L3_Lat_Bending	L2_L3_axial_rotation	L1_L2_Flex_Ext	L1_L2_Lat_Bending	L1_L2_axial_rotation	L1_T12_Flex_Ext	L1_T12_Lat_Bending	L1_T12_axial_rotation	Abs_r3	Abs_r2	Abs_r1	Abs_t1	Abs_t2	neck_flexion	neck_bending	neck_rotation	arm_flex_r	arm_add_r	arm_rot_r	elbow_flex_r	pro_sup_r	wrist_flex_r	wrist_dev_r	arm_flex_l	arm_add_l	arm_rot_l	elbow_flex_l	pro_sup_l	wrist_flex_l	wrist_dev_l
      1.40816327	     -2.23263569	     -5.93399746	     95.34222962	      0.20970007	      0.74686782	      0.64988225	      2.22773593	     -2.63967616	     -5.11827697	      6.04579713	      0.10551907	     27.27038917	      4.11536123	      0.00000000	      6.76051891	      3.17741817	     -1.31361570	     10.56472613	      0.18438926	     29.43395444	     -0.22694508	      0.00000000	     -0.28157699	      0.36053688	     -1.23690798	     -0.52291664	      0.47951405	     -1.31421473	     -0.46260284	      0.87660936	     -1.31421473	     -0.32181435	      0.87660936	     -1.08229449	     -0.26147240	      0.73520680	     -1.00498774	     -0.16089309	      0.55847162	     -0.92768099	     -2.01127632	      4.07846526	     -6.87931113	      0.00000000	      0.00000000	     22.11665166	     -4.25496861	     15.60853056	      8.31684365	    -17.13738520	    122.90320839	      8.59565960	      7.10816684	      1.60301404	      1.24679996	      3.92819974	     -9.87053433	    151.68680521	      4.72122574	      5.79918582	     -3.94634407	    -12.38934357
      1.42857143	     -2.09838272	     -6.23294556	     94.96982263	      0.21002612	      0.74570502	      0.65084611	      2.86771000	     -2.55798580	     -5.56751744	      6.55444524	      0.11439665	     27.60695321	      4.99434906	      0.00000000	      7.44664616	      2.82743440	     -3.75177266	     11.41762508	      0.19927515	     30.40173327	      2.71357956	      0.00000000	     -0.29662681	      0.38644974	     -1.19578920	     -0.55086564	      0.51397816	     -1.27052603	     -0.48732818	      0.93961390	     -1.27052603	     -0.33901478	      0.93961390	     -1.04631555	     -0.27544765	      0.78804831	     -0.97157873	     -0.16949256	      0.59861065	     -0.89684190	     -2.11877561	      4.37159676	     -6.65062081	      0.00000000	      0.00000000	     23.35963035	     -4.40330806	     16.16315674	      7.91956019	    -17.15127399	    116.17700912	      8.77151743	      5.25021786	      0.99504188	      2.03308022	      3.61085763	     -9.40074048	    151.79374822	      4.07547760	      6.24691370	     -5.33967476	    -12.26761953
      1.44897959	     -2.03274295	     -6.39476620	     94.81185357	      0.20940068	      0.74483225	      0.65082929	      3.06905506	     -2.51555951	     -5.48471824	      6.61246405	      0.11540927	     27.76501962	      5.05010865	      0.00000000	      7.62539089	      2.83464087	     -3.82793637	     11.51678326	      0.20100579	     30.60700733	      2.74281152	      0.00000000	     -0.31201538	      0.41370134	     -1.15200127	     -0.57944377	      0.55022278	     -1.22400135	     -0.51261007	      1.00587343	     -1.22400135	     -0.35660238	      1.00587343	     -1.00800111	     -0.28973748	      0.84361977	     -0.93600103	     -0.17828559	      0.64082337	     -0.86400095	     -2.22869468	      4.67987227	     -6.40708548	      0.00000000	      0.00000000	     24.22086469	     -4.48126959	     16.38579547	      7.56948486	    -16.97243122	    116.07702867	      8.13105575	      5.20601569	      0.46044590	      1.74903042	      3.24134209	     -8.90269613	    151.68275239	      3.44591845	      6.18413414	     -5.60405944	    -12.29712289
      1.46938776	     -1.82763762	     -6.83254849	     94.10940094	      0.21015986	      0.74370960	      0.65134487	      3.94967586	     -2.39677325	     -6.46895862	      7.26979491	      0.12688186	     28.25633746	      7.16062512	      0.00000000	      8.37316828	      2.30534691	     -7.03734325	     12.27434392	      0.21422771	     31.66817190	      6.35100644	      0.00000000	     -0.30402866	      0.45708762	     -1.01114391	     -0.56461163	      0.60792653	     -1.07434041	     -0.49948869	      1.11136283	     -1.07434041	     -0.34747436	      1.11136283	     -0.88475092	     -0.28232102	      0.93209307	     -0.82155443	     -0.17372198	      0.70802872	     -0.75835794	     -2.17164634	      5.17066654	     -5.62367911	      0.00000000	      0.00000000	     25.50916365	     -5.04000600	     16.99747615	      7.36763134	    -16.94653799	    117.16645578	      7.88486069	      5.51298774	     -0.85637173	      0.52679813	      2.82442831	     -8.38210682	    153.21091845	      2.56422389	      6.85798124	     -6.65446262	    -12.02062136
      1.48979592	     -1.81740228	     -7.13916558	     93.59137338	      0.21037229	      0.74303886	      0.65101801	      4.42987971	     -2.41282927	     -6.51453173	      7.53310989	      0.13147757	     28.48466944	      7.88485316	      0.00000000	      8.63490138	      2.26498271	     -7.73741384	     12.25194322	      0.21383675	     31.94864039	      6.90505493	      0.00000000	     -0.29394022	      0.47833248	     -0.83779017	     -0.54587639	      0.63618220	     -0.89015205	     -0.48291440	      1.16301759	     -0.89015205	     -0.33594428	      1.16301759	     -0.73306640	     -0.27295289	      0.97541560	     -0.68070451	     -0.16795744	      0.74093701	     -0.62834263	     -2.09958563	      5.41099269	     -4.65953758	      0.00000000	      0.00000000	     26.31566719	     -5.56593472	     17.05752511	      6.90591794	    -16.89932889	    118.98496918	      7.51866210	      5.96982110	     -1.93267184	     -0.40075564	      2.61728835	     -7.99886503	    154.32876846	      2.11754905	      7.75156103	     -7.34323217	    -11.79685884
      1.51020408	     -1.84290053	     -7.42341183	     93.05180939	      0.21091698	      0.74264324	      0.65044141	      4.85542714	     -2.42833671	     -6.29563351	      7.73938429	      0.13507774	     28.68520036	      8.39675674	      0.00000000	      8.82200765	      2.24715957	     -8.32819057	     12.13174395	      0.21173888	     32.11815483	      7.21457786	      0.00000000	     -0.27656623	      0.48792546	     -0.63479619	     -0.51361115	      0.64894086	     -0.67447095	     -0.45437066	      1.18634196	     -0.67447095	     -0.31608754	      1.18634196	     -0.55544666	     -0.25681940	      0.99497760	     -0.51577190	     -0.15802994	      0.75579654	     -0.47609714	     -1.97548492	      5.51951037	     -3.53054595	      0.00000000	      0.00000000	     26.78135462	     -6.16064521	     16.81907805	      6.36508528	    -16.87986087	    120.72549644	      7.31493433	      6.41909987	     -2.71104046	     -1.21099936	      2.52001220	     -7.73283392	    156.19635040	      1.75979818	      9.41582381	     -8.31664204	    -11.52641549
      1.53061224	     -1.92407622	     -7.61934881	     92.57133733	      0.21162700	      0.74258670	      0.64986235	      5.14142248	     -2.47427769	     -6.04300310	      7.79758370	      0.13609351	     28.79810698	      8.81687407	      0.00000000	      8.85266071	      2.26544186	     -9.05444699	     11.90026769	      0.20769885	     32.03750817	      7.55008380	      0.00000000	     -0.26876481	      0.48766316	     -0.42151354	     -0.49912314	      0.64859200	     -0.44785814	     -0.44155371	      1.18570420	     -0.44785814	     -0.30717131	      1.18570420	     -0.36882435	     -0.24957501	      0.99444271	     -0.34247975	     -0.15357222	      0.75539023	     -0.31613516	     -1.91976020	      5.51654314	     -2.34433187	      0.00000000	      0.00000000	     27.00009725	     -6.78783230	     16.55595900	      5.73738171	    -16.72972948	    122.78156606	      6.87212898	      6.58837540	     -2.80549785	     -1.48876805	      2.63035827	     -7.52794546	    159.62695808	      1.34318913	     12.91405228	     -9.87964423	    -10.88903418
      1.55102041	     -1.91203057	     -7.67048331	     92.75451620	      0.21157356	      0.74275780	      0.64965276	      5.18420615	     -2.45393437	     -6.01469622	      7.76446488	      0.13551548	     28.85104080	      8.83166425	      0.00000000	      8.88635903	      2.25626570	     -9.08279194	     11.91092371	      0.20788484	     31.93723322	      7.54506459	      0.00000000	     -0.28463083	      0.49135886	     -0.38750099	     -0.52858791	      0.65350729	     -0.41171980	     -0.46761998	      1.19468994	     -0.41171980	     -0.32530457	      1.19468994	     -0.33906337	     -0.26430818	      1.00197899	     -0.31484455	     -0.16263805	      0.76111488	     -0.29062574	     -2.03308952	      5.55834973	     -2.15516426	      0.00000000	      0.00000000	     27.04306809	     -6.84166464	     16.62472547	      5.38453964	    -16.67680290	    122.83653603	      7.01059310	      6.59797230	     -2.78824217	     -1.44228988	      2.58707374	     -7.47244558	    159.66983086	      1.21208575	     12.97133557	     -9.91431918	    -10.90860274
      1.57142857	     -1.69972009	     -7.78696344	     92.06443410	      0.21213022	      0.74285794	      0.64922357	      5.33782021	     -2.13565410	     -4.69294173	      7.47660813	      0.13049143	     28.58120556	      8.11381315	      0.00000000	      8.85137171	      2.00356808	     -9.28047255	     11.73315939	      0.20478226	     31.61937173	      6.73297172	      0.00000000	     -0.28288475	      0.53377487	     -0.11928822	     -0.52534528	      0.70992057	     -0.12674373	     -0.46475136	      1.29782021	     -0.12674373	     -0.32330898	      1.29782021	     -0.10437719	     -0.26268678	      1.08847371	     -0.09692168	     -0.16164035	      0.82681727	     -0.08946617	     -2.02061750	      6.03816805	     -0.66344529	      0.00000000	      0.00000000	     26.99164230	     -7.87963750	     16.74877199	      4.68547002	    -16.80859859	    123.20761395	      6.94311245	      5.55307611	     -3.09318803	     -1.30862938	      2.93298878	     -7.00091500	    162.80442725	      0.87880650	     20.71961004	    -12.30966515	     -9.81713957
      1.59183673	     -1.57102759	     -7.75951840	     91.81965470	      0.21222678	      0.74302841	      0.64911195	      5.37694128	     -1.97305699	     -4.05161241	      7.39775340	      0.12911515	     28.53554308	      7.72173739	      0.00000000	      8.72185236	      1.91598232	     -8.83499492	     11.60707936	      0.20258175	     31.19561633	      5.49597171	      0.00000000	     -0.30750105	      0.55455735	     -0.03203153	     -0.57106019	      0.73756128	     -0.03403350	     -0.50519347	      1.34835074	     -0.03403350	     -0.35144295	      1.34835074	     -0.02802758	     -0.28554547	      1.13085335	     -0.02602561	     -0.17570610	      0.85900934	     -0.02402364	     -2.19644922	      6.27326366	     -0.17814974	      0.00000000	      0.00000000	     26.86778616	     -8.11382716	     16.97436918	      4.27429484	    -16.98856963	    119.77455331	      7.46947187	      5.54208387	     -3.50886447	     -1.12464197	      2.84664559	     -6.82731229	    159.95852189	      0.80037782	     25.38456706	    -13.47101703	    -10.31943924
